<svg xmlns="http://www.w3.org/2000/svg" viewBox="0 0 48 48" width="48" height="48" role="img" aria-label="PALMA PROPERTY">
  <rect width="48" height="48" rx="11" fill="#0a0e1a"/>
  <g transform="translate(4.5,3.5) scale(0.8)">
    <circle cx="34" cy="13" r="8" fill="#f9a826" opacity="0.28"/>
    <g stroke="#f9a826" stroke-width="1.7" stroke-linecap="round">
      <line x1="41" y1="13" x2="44" y2="13"/><line x1="39" y1="18" x2="41.1" y2="20.1"/>
      <line x1="34" y1="20" x2="34" y2="23"/><line x1="29" y1="18" x2="26.9" y2="20.1"/>
      <line x1="27" y1="13" x2="24" y2="13"/><line x1="29" y1="8" x2="26.9" y2="5.9"/>
      <line x1="34" y1="6" x2="34" y2="3"/><line x1="39" y1="8" x2="41.1" y2="5.9"/>
    </g>
    <circle cx="34" cy="13" r="5" fill="#f9a826"/>
    <circle cx="34" cy="13" r="2.6" fill="#ffce85"/>
    <path d="M5 40 Q24 33 43 40 Q24 46 5 40 Z" fill="#0d9488"/>
    <path d="M22 40 C20 32 19 27 17 21" fill="none" stroke="#2dd4bf" stroke-width="2.2" stroke-linecap="round"/>
    <g fill="none" stroke="#2dd4bf" stroke-width="2" stroke-linecap="round">
      <path d="M17 21 C11 19 7 21 4 25"/><path d="M17 21 C12 16 8 15 4 15"/>
      <path d="M17 21 C16 14 17 10 19 7"/><path d="M17 21 C22 15 27 14 31 15"/>
      <path d="M17 21 C23 20 28 23 31 27"/><path d="M17 21 C24 18 29 18 33 20"/>
    </g>
    <circle cx="18.4" cy="22.4" r="1.3" fill="#f9a826"/>
    <circle cx="15.2" cy="22.2" r="1.3" fill="#f9a826"/>
  </g>
</svg>
